<svg width="349" height="805" viewBox="0 0 349 805" fill="none" xmlns="http://www.w3.org/2000/svg">
<path d="M348.39 236.14C340.13 231.81 309.94 218.81 285.32 198.89C269.75 186.29 252.23 174.28 245.68 167.05C243.274 164.399 240.236 162.401 236.85 161.24V122.86C239.09 121.686 241.187 120.256 243.1 118.6V92.7598H245.62V48.1998H243.1V16.3698C243.1 16.3698 218.02 0 174.74 0C131.46 0 106.55 16.3698 106.55 16.3698V48.1998H103.62V92.7598H106.55V118.6C108.578 120.359 110.811 121.866 113.2 123.09V163.33C111.539 164.358 110.028 165.609 108.71 167.05C102.16 174.28 84.64 186.29 69.08 198.89C44.46 218.81 14.27 231.81 6 236.14V245.14C6 245.14 34 261.56 92.63 270.43C85.139 277.87 77.279 284.929 69.08 291.58C55.82 302.3 40.95 311.02 28.75 317.46C64.171 324.009 96.499 341.907 120.85 368.45C145.202 394.993 160.255 428.739 163.736 464.592C167.216 500.445 158.935 536.457 140.143 567.188C121.351 597.919 93.07 621.701 59.57 634.94C69.24 637.26 80.24 639.47 92.63 641.35C85.143 648.81 77.283 655.886 69.08 662.55C44.46 682.45 14.24 695.45 6 699.79V708.79C6 708.79 30.72 723.32 82.47 732.43V782.62C82.47 782.62 114.24 804.55 168.9 804.55C223.56 804.55 255.34 782.67 255.34 782.67V733.43C314.96 724.43 348.34 708.83 348.34 708.83V699.83C340.08 695.49 309.89 682.49 285.27 662.57C276.534 655.495 268.188 647.95 260.27 639.97C316.78 630.88 348.34 616.14 348.34 616.14V607.14C340.08 602.8 309.89 589.8 285.27 569.88C276.534 562.805 268.188 555.26 260.27 547.28C316.78 538.19 348.34 523.45 348.34 523.45V514.45C340.08 510.11 309.89 497.11 285.27 477.19C276.534 470.115 268.188 462.57 260.27 454.59C316.78 445.5 348.34 430.76 348.34 430.76V421.76C340.08 417.43 309.89 404.42 285.27 384.5C276.534 377.425 268.188 369.88 260.27 361.9C316.78 352.81 348.34 338.07 348.34 338.07V329.07C340.13 324.55 309.94 311.55 285.32 291.62C276.581 284.545 268.235 276.997 260.32 269.01C316.83 259.92 348.39 245.18 348.39 245.18V236.14Z" fill="#A7A7A7"/>
<path d="M0.00012207 236.14C8.26012 231.81 38.4501 218.81 63.0701 198.89C78.6401 186.29 96.1601 174.28 102.71 167.05C105.116 164.399 108.154 162.401 111.54 161.24V122.86C109.3 121.686 107.203 120.256 105.29 118.6V92.7598H102.77V48.1998H105.29V16.3698C105.29 16.3698 130.37 0 173.65 0C216.93 0 241.84 16.3698 241.84 16.3698V48.1998H244.77V92.7598H241.84V118.6C239.812 120.359 237.579 121.866 235.19 123.09V163.33C236.851 164.358 238.362 165.609 239.68 167.05C246.23 174.28 263.75 186.29 279.31 198.89C303.93 218.81 334.12 231.81 342.39 236.14V245.14C342.39 245.14 314.39 261.56 255.76 270.43C263.251 277.87 271.111 284.929 279.31 291.58C292.57 302.3 307.44 311.02 319.64 317.46C284.219 324.009 251.891 341.907 227.54 368.45C203.188 394.993 188.135 428.739 184.654 464.592C181.174 500.445 189.455 536.457 208.247 567.188C227.039 597.919 255.32 621.701 288.82 634.94C279.15 637.26 268.15 639.47 255.76 641.35C263.247 648.81 271.107 655.886 279.31 662.55C303.93 682.45 334.15 695.45 342.39 699.79V708.79C342.39 708.79 317.67 723.32 265.92 732.43V782.62C265.92 782.62 234.15 804.55 179.49 804.55C124.83 804.55 93.0502 782.67 93.0502 782.67V733.43C33.4302 724.43 0.0501709 708.83 0.0501709 708.83V699.83C8.31017 695.49 38.5001 682.49 63.1201 662.57C71.8561 655.495 80.2021 647.95 88.1201 639.97C31.6101 630.88 0.0501709 616.14 0.0501709 616.14V607.14C8.31017 602.8 38.5001 589.8 63.1201 569.88C71.8561 562.805 80.2021 555.26 88.1201 547.28C31.6101 538.19 0.0501709 523.45 0.0501709 523.45V514.45C8.31017 510.11 38.5001 497.11 63.1201 477.19C71.8561 470.115 80.2021 462.57 88.1201 454.59C31.6101 445.5 0.0501709 430.76 0.0501709 430.76V421.76C8.31017 417.43 38.5001 404.42 63.1201 384.5C71.8561 377.425 80.2021 369.88 88.1201 361.9C31.6101 352.81 0.0501709 338.07 0.0501709 338.07V329.07C8.26017 324.55 38.4501 311.55 63.0701 291.62C71.8091 284.545 80.1551 276.997 88.0701 269.01C31.5601 259.92 0.00012207 245.18 0.00012207 245.18V236.14Z" fill="#A7A7A7"/>
</svg>
