<svg width="1080" height="1080" viewBox="0 0 1080 1080" fill="none" xmlns="http://www.w3.org/2000/svg">
<path d="M271.09 455.32C271.09 455.32 352.3 364.43 486.72 368.51C607.92 372.19 627.07 483.05 758.58 483.05C900.03 483.05 946.72 330.81 946.72 330.81C946.72 330.81 899.09 418.96 791.07 427.81C696.07 435.57 643.07 309.81 513.65 309.81C343.61 309.81 271.09 455.32 271.09 455.32Z" fill="#A7A7A7"/>
<path d="M742.78 539.82C647.65 533.63 584.78 417.59 455.43 417.59C285.43 417.59 212.87 567.36 212.87 567.36C212.87 567.36 294.08 472.22 428.5 476.3C529.75 479.37 576.06 559.81 665.24 586.22C670.24 578.71 673.67 574.03 674.24 573.22L686.48 556.5L699.28 572.8C700.14 573.89 706.35 581.87 714.88 594.36C717.76 594.48 720.67 594.56 723.64 594.56C865.09 594.56 918.28 445.72 918.28 445.72C918.28 445.72 863.94 547.7 742.78 539.82Z" fill="#A7A7A7"/>
<path d="M746.82 647.55C752.585 658.672 757.743 670.099 762.27 681.78C825.08 650.78 852.94 593.71 852.94 593.71C852.94 593.71 819.85 633.55 746.82 647.55Z" fill="#A7A7A7"/>
<path d="M634.59 637.47C562.68 604.9 491.1 530.12 390.06 530.12C220.06 530.12 147.5 679.89 147.5 679.89C147.5 679.89 228.71 584.74 363.13 588.82C462.13 591.82 520.95 665.06 610.88 691.75C617.1 673.05 625.71 654.33 634.59 637.47Z" fill="#A7A7A7"/>
<path d="M687 582.48C687 582.48 617.16 677.84 617.16 742C617.16 792.5 661.51 811.41 688.48 811.41C717.22 811.41 759.74 796.03 759.81 743.31C759.89 675.4 687 582.48 687 582.48ZM718.5 789.92C715.818 789.92 713.196 789.125 710.966 787.635C708.737 786.145 706.998 784.027 705.972 781.549C704.946 779.071 704.677 776.345 705.201 773.715C705.724 771.084 707.015 768.668 708.912 766.772C710.808 764.875 713.224 763.584 715.854 763.061C718.485 762.537 721.211 762.806 723.689 763.832C726.167 764.859 728.285 766.597 729.775 768.826C731.265 771.056 732.06 773.678 732.06 776.36C732.06 779.956 730.631 783.405 728.088 785.948C725.545 788.491 722.096 789.92 718.5 789.92Z" fill="#5E5E5E"/>
</svg>
