<svg width="81" height="50" viewBox="0 0 81 50" fill="none" xmlns="http://www.w3.org/2000/svg">
<path d="M9.02419 38.792C8.49619 38.792 8.08819 38.636 7.80019 38.324C7.53619 38.036 7.40419 37.7 7.40419 37.316C7.40419 36.98 7.54819 36.668 7.83619 36.38C8.14819 36.068 8.56819 35.792 9.09619 35.552C10.0562 35.048 10.9562 34.544 11.7962 34.04C12.6602 33.536 13.3562 32.996 13.8842 32.42C14.4122 31.844 14.6762 31.232 14.6762 30.584C14.6762 30.032 14.4962 29.612 14.1362 29.324C13.7762 29.012 13.2842 28.856 12.6602 28.856C12.3002 28.856 11.7962 28.928 11.1482 29.072C10.5002 29.192 9.79219 29.336 9.02419 29.504C8.28019 29.648 7.54819 29.792 6.82819 29.936C6.10819 30.056 5.49619 30.116 4.99219 30.116C4.08019 30.116 3.39619 29.9 2.94019 29.468C2.48419 29.012 2.25619 28.4 2.25619 27.632C2.25619 27.248 2.48419 26.672 2.94019 25.904C3.39619 25.136 3.99619 24.284 4.74019 23.348C5.50819 22.388 6.34819 21.428 7.26019 20.468C8.17219 19.508 9.09619 18.62 10.0322 17.804C10.9922 16.988 11.8802 16.328 12.6962 15.824C13.5362 15.32 14.2322 15.068 14.7842 15.068C15.3362 15.068 15.7562 15.248 16.0442 15.608C16.3322 15.968 16.4762 16.424 16.4762 16.976C16.4762 17.408 16.4042 17.78 16.2602 18.092C16.1162 18.38 15.8162 18.608 15.3602 18.776C14.9282 18.944 14.2562 19.04 13.3442 19.064C12.4082 19.808 11.4122 20.66 10.3562 21.62C9.32419 22.556 8.37619 23.528 7.51219 24.536C6.67219 25.52 6.06019 26.468 5.67619 27.38C6.46819 27.116 7.42819 26.888 8.55619 26.696C9.70819 26.48 10.8722 26.372 12.0482 26.372C13.8962 26.372 15.2642 26.792 16.1522 27.632C17.0642 28.448 17.5202 29.528 17.5202 30.872C17.5202 31.736 17.2442 32.636 16.6922 33.572C16.1642 34.484 15.4682 35.336 14.6042 36.128C13.7402 36.92 12.8162 37.556 11.8322 38.036C10.8482 38.54 9.91219 38.792 9.02419 38.792ZM23.3213 38.936C22.4093 38.936 21.6533 38.516 21.0533 37.676C20.4773 36.812 20.1893 35.696 20.1893 34.328C20.1893 33.056 20.5013 31.796 21.1253 30.548C21.7733 29.3 22.6253 28.1 23.6813 26.948C24.7373 25.796 25.8893 24.74 27.1373 23.78C28.3853 22.796 29.6333 21.944 30.8813 21.224C32.1533 20.504 33.3173 19.94 34.3733 19.532C35.4293 19.124 36.2693 18.92 36.8933 18.92C37.2293 18.92 37.5053 18.992 37.7213 19.136C37.9373 19.256 38.0453 19.484 38.0453 19.82C38.0453 20.036 37.9613 20.24 37.7933 20.432C37.8173 20.432 37.8413 20.432 37.8653 20.432C38.3933 20.432 38.6573 20.744 38.6573 21.368C38.6573 21.584 38.5733 22.028 38.4053 22.7C38.2373 23.348 38.0453 24.164 37.8293 25.148C37.6133 26.132 37.4213 27.224 37.2533 28.424C37.0853 29.6 37.0013 30.8 37.0013 32.024C37.0013 33.056 37.3973 33.572 38.1893 33.572C39.0773 33.572 39.9773 33.368 40.8893 32.96C41.8013 32.552 42.6893 32.06 43.5533 31.484C44.4173 30.884 45.2093 30.296 45.9293 29.72C46.6493 29.12 47.2613 28.616 47.7653 28.208C48.2693 27.8 48.6293 27.596 48.8453 27.596C49.0373 27.596 49.2053 27.656 49.3493 27.776C49.4933 27.896 49.5653 28.088 49.5653 28.352C49.5653 28.592 49.3253 29.024 48.8453 29.648C48.3653 30.272 47.7293 30.98 46.9373 31.772C46.1453 32.564 45.2573 33.332 44.2733 34.076C43.2893 34.82 42.2813 35.432 41.2493 35.912C40.2173 36.392 39.2333 36.632 38.2973 36.632C37.5773 36.632 36.9173 36.416 36.3173 35.984C35.7413 35.528 35.2733 34.76 34.9133 33.68C34.5773 32.6 34.4093 31.112 34.4093 29.216V28.316C33.2333 30.26 31.9973 32.036 30.7013 33.644C29.4293 35.252 28.1573 36.536 26.8853 37.496C25.6373 38.456 24.4493 38.936 23.3213 38.936ZM36.2093 21.512C36.0893 21.56 35.9213 21.632 35.7053 21.728C34.6013 22.232 33.4493 22.856 32.2493 23.6C31.0733 24.344 29.9213 25.172 28.7933 26.084C27.6893 26.996 26.6933 27.944 25.8053 28.928C24.9173 29.912 24.2093 30.908 23.6813 31.916C23.1533 32.924 22.8893 33.908 22.8893 34.868C22.8893 35.18 22.9493 35.42 23.0693 35.588C23.2133 35.756 23.4533 35.84 23.7893 35.84C24.2693 35.84 24.8933 35.54 25.6613 34.94C26.4293 34.316 27.2693 33.5 28.1813 32.492C29.1173 31.484 30.0533 30.368 30.9893 29.144C31.9253 27.92 32.8133 26.684 33.6533 25.436C34.5173 24.188 35.2613 23.036 35.8853 21.98C35.9813 21.812 36.0893 21.656 36.2093 21.512ZM75.3339 36.92C75.3099 37.304 75.1539 37.616 74.8659 37.856C74.5779 38.096 74.2419 38.216 73.8579 38.216C73.4259 38.216 73.0659 38.072 72.7779 37.784C72.4899 37.496 72.3459 37.052 72.3459 36.452C72.3459 34.892 72.4179 33.2 72.5619 31.376C72.7059 29.528 72.8859 27.704 73.1019 25.904C73.3179 24.08 73.5339 22.4 73.7499 20.864C72.9579 21.992 72.0939 23.24 71.1579 24.608C70.2459 25.976 69.3099 27.332 68.3499 28.676C67.3899 30.02 66.4539 31.256 65.5419 32.384C64.6299 33.488 63.8019 34.388 63.0579 35.084C62.3139 35.756 61.7019 36.092 61.2219 36.092C60.3339 36.092 59.5659 35.744 58.9179 35.048C58.2699 34.328 57.9459 33.428 57.9459 32.348C57.9459 31.916 57.9939 31.328 58.0899 30.584C58.1859 29.816 58.2939 29.012 58.4139 28.172C58.5339 27.332 58.6419 26.552 58.7379 25.832C58.8339 25.088 58.8819 24.536 58.8819 24.176C58.8819 23.84 58.8459 23.552 58.7739 23.312C58.7259 23.048 58.6059 22.916 58.4139 22.916C58.1259 22.916 57.7299 23.24 57.2259 23.888C56.7219 24.512 56.1579 25.316 55.5339 26.3C54.9339 27.284 54.3099 28.328 53.6619 29.432C53.0379 30.536 52.4499 31.58 51.8979 32.564C51.3459 33.524 50.8779 34.28 50.4939 34.832C50.1819 35.36 49.8939 35.744 49.6299 35.984C49.3659 36.224 49.0419 36.344 48.6579 36.344C48.2019 36.344 47.7819 36.104 47.3979 35.624C47.0379 35.144 46.8579 34.556 46.8579 33.86C46.8579 33.452 46.9299 32.816 47.0739 31.952C47.2179 31.064 47.3979 30.092 47.6139 29.036C47.8539 27.98 48.0819 26.948 48.2979 25.94C48.5379 24.908 48.7419 24.032 48.9099 23.312C49.1019 22.496 49.3419 21.944 49.6299 21.656C49.9179 21.368 50.2299 21.224 50.5659 21.224C51.0219 21.224 51.3819 21.392 51.6459 21.728C51.9339 22.04 52.0779 22.532 52.0779 23.204C52.0779 23.324 52.0059 23.648 51.8619 24.176C51.7179 24.68 51.5379 25.304 51.3219 26.048C51.1299 26.768 50.9139 27.524 50.6739 28.316C50.4579 29.108 50.2779 29.84 50.1339 30.512C50.6619 29.624 51.2139 28.664 51.7899 27.632C52.3899 26.6 52.9899 25.58 53.5899 24.572C54.1899 23.54 54.7899 22.604 55.3899 21.764C55.9899 20.9 56.5779 20.216 57.1539 19.712C57.7299 19.208 58.2819 18.956 58.8099 18.956C59.4339 18.956 60.0099 19.148 60.5379 19.532C61.0899 19.916 61.5339 20.432 61.8699 21.08C62.2059 21.728 62.3739 22.448 62.3739 23.24C62.3739 23.792 62.2779 24.572 62.0859 25.58C61.8939 26.564 61.6899 27.632 61.4739 28.784C61.2819 29.936 61.1619 31.028 61.1139 32.06C61.1139 32.3 61.1859 32.42 61.3299 32.42C61.4499 32.42 61.5939 32.336 61.7619 32.168C62.4579 31.4 63.2259 30.476 64.0659 29.396C64.9059 28.292 65.7579 27.128 66.6219 25.904C67.5099 24.68 68.3859 23.48 69.2499 22.304C70.1139 21.104 70.9179 20.024 71.6619 19.064C72.4299 18.08 73.1019 17.3 73.6779 16.724C74.2779 16.148 74.7459 15.86 75.0819 15.86C75.8019 15.86 76.3539 16.064 76.7379 16.472C77.1219 16.88 77.3139 17.564 77.3139 18.524C77.3139 19.292 77.2539 20.288 77.1339 21.512C77.0379 22.736 76.9059 24.068 76.7379 25.508C76.5939 26.948 76.4259 28.4 76.2339 29.864C76.0659 31.304 75.8979 32.648 75.7299 33.896C75.5619 35.12 75.4299 36.128 75.3339 36.92Z" fill="white"/>
</svg>
