<svg width="1080" height="1080" viewBox="0 0 1080 1080" fill="none" xmlns="http://www.w3.org/2000/svg">
<path d="M693.14 631.27H647.82C646.064 631.27 644.64 632.694 644.64 634.45V646.4C644.64 648.156 646.064 649.58 647.82 649.58H693.14C694.896 649.58 696.32 648.156 696.32 646.4V634.45C696.32 632.694 694.896 631.27 693.14 631.27Z" fill="#5E5E5E"/>
<path d="M693.14 595.25H647.82C646.064 595.25 644.64 596.674 644.64 598.43V610.38C644.64 612.136 646.064 613.56 647.82 613.56H693.14C694.896 613.56 696.32 612.136 696.32 610.38V598.43C696.32 596.674 694.896 595.25 693.14 595.25Z" fill="#5E5E5E"/>
<path d="M693.14 559.23H647.82C646.064 559.23 644.64 560.654 644.64 562.41V574.36C644.64 576.116 646.064 577.54 647.82 577.54H693.14C694.896 577.54 696.32 576.116 696.32 574.36V562.41C696.32 560.654 694.896 559.23 693.14 559.23Z" fill="#5E5E5E"/>
<path d="M737.18 523.21H647.82C646.064 523.21 644.64 524.634 644.64 526.39V538.34C644.64 540.096 646.064 541.52 647.82 541.52H737.18C738.936 541.52 740.36 540.096 740.36 538.34V526.39C740.36 524.634 738.936 523.21 737.18 523.21Z" fill="#5E5E5E"/>
<path d="M737.18 662.97H647.82C646.064 662.97 644.64 664.394 644.64 666.15V678.1C644.64 679.856 646.064 681.28 647.82 681.28H737.18C738.936 681.28 740.36 679.856 740.36 678.1V666.15C740.36 664.394 738.936 662.97 737.18 662.97Z" fill="#5E5E5E"/>
<path d="M693.14 487.19H647.82C646.064 487.19 644.64 488.614 644.64 490.37V502.32C644.64 504.076 646.064 505.5 647.82 505.5H693.14C694.896 505.5 696.32 504.076 696.32 502.32V490.37C696.32 488.614 694.896 487.19 693.14 487.19Z" fill="#5E5E5E"/>
<path d="M693.14 451.17H647.82C646.064 451.17 644.64 452.594 644.64 454.35V466.3C644.64 468.056 646.064 469.48 647.82 469.48H693.14C694.896 469.48 696.32 468.056 696.32 466.3V454.35C696.32 452.594 694.896 451.17 693.14 451.17Z" fill="#5E5E5E"/>
<path d="M693.14 415.15H647.82C646.064 415.15 644.64 416.574 644.64 418.33V430.28C644.64 432.036 646.064 433.46 647.82 433.46H693.14C694.896 433.46 696.32 432.036 696.32 430.28V418.33C696.32 416.574 694.896 415.15 693.14 415.15Z" fill="#5E5E5E"/>
<path d="M737.18 379.13H647.82C646.064 379.13 644.64 380.554 644.64 382.31V394.26C644.64 396.016 646.064 397.44 647.82 397.44H737.18C738.936 397.44 740.36 396.016 740.36 394.26V382.31C740.36 380.554 738.936 379.13 737.18 379.13Z" fill="#5E5E5E"/>
<path d="M693.14 343.11H647.82C646.064 343.11 644.64 344.534 644.64 346.29V358.24C644.64 359.996 646.064 361.42 647.82 361.42H693.14C694.896 361.42 696.32 359.996 696.32 358.24V346.29C696.32 344.534 694.896 343.11 693.14 343.11Z" fill="#5E5E5E"/>
<path d="M693.14 307.09H647.82C646.064 307.09 644.64 308.514 644.64 310.27V322.22C644.64 323.976 646.064 325.4 647.82 325.4H693.14C694.896 325.4 696.32 323.976 696.32 322.22V310.27C696.32 308.514 694.896 307.09 693.14 307.09Z" fill="#5E5E5E"/>
<path d="M693.14 271.07H647.82C646.064 271.07 644.64 272.494 644.64 274.25V286.2C644.64 287.956 646.064 289.38 647.82 289.38H693.14C694.896 289.38 696.32 287.956 696.32 286.2V274.25C696.32 272.494 694.896 271.07 693.14 271.07Z" fill="#5E5E5E"/>
<path d="M737.18 235.05H647.82C646.064 235.05 644.64 236.474 644.64 238.23V250.18C644.64 251.936 646.064 253.36 647.82 253.36H737.18C738.936 253.36 740.36 251.936 740.36 250.18V238.23C740.36 236.474 738.936 235.05 737.18 235.05Z" fill="#5E5E5E"/>
<path d="M397.64 821.19C380.88 823.92 367.64 829.04 357.32 835.28C350.2 826.85 349.14 819.36 349 817.9C349.688 811.349 352.18 805.118 356.2 799.9C367.05 805.9 381.7 811.3 401.46 814.98C427.64 819.85 444.54 810.35 451.62 799.82C457.62 790.97 457.84 780.09 452.3 771.44C448.2 765.04 434.66 750.8 397.64 756.82C378.2 759.98 364.3 766.14 354.38 773.15C349.17 768 346.9 763 346.43 759H346.49C346.226 755.236 346.736 751.459 347.99 747.9C349.917 742.558 352.907 737.663 356.78 733.51C367.31 740.59 381.71 746.82 401.43 750.56C427.56 755.51 444.43 746.05 451.57 735.56C457.57 726.69 457.85 715.78 452.29 707.09C448.19 700.67 434.66 686.4 397.64 692.42C380.39 695.23 367.27 700.37 357.31 706.5C350.21 698.08 349.15 690.61 349 689.14C349.725 682.127 352.509 675.485 357 670.05C367.73 676.66 382.13 682.52 401.41 686.18C427.54 691.13 444.41 681.67 451.55 671.18C457.55 662.31 457.83 651.4 452.27 642.71C448.17 636.29 434.64 622.02 397.62 628.04C379.3 631.04 365.9 636.66 356.11 643.17C352.015 639.104 348.899 634.159 347 628.71V606H346.87C346.87 603.215 345.764 600.545 343.795 598.575C341.825 596.606 339.155 595.5 336.37 595.5C333.585 595.5 330.915 596.606 328.945 598.575C326.976 600.545 325.87 603.215 325.87 606H325.74V628.36C325.74 628.43 325.74 628.55 325.74 628.72V630H325.96C326.75 634.16 329.79 645.37 340.82 657C339.167 659.051 337.657 661.213 336.3 663.47C327.62 677.89 328.39 690.31 328.48 691.75L328.53 692.29C329.25 697.29 331.85 708.29 341.29 719.66C335.623 725.847 331.248 733.101 328.42 741C326.798 745.627 325.881 750.471 325.7 755.37H325.65C325.554 757.037 325.595 758.709 325.77 760.37C325.83 761.05 325.88 761.51 325.91 761.69C326.8 768.12 329.91 777.81 339.46 787.47C338.25 789.09 337.19 790.7 336.26 792.24C327.58 806.66 328.1 819.64 328.18 821.08H328.49C329.2 826.08 331.76 836.83 340.92 848.08C322.75 866.33 319.83 886.72 319.63 888.28V912.28H319.76C319.76 915.065 320.866 917.736 322.835 919.705C324.805 921.674 327.475 922.78 330.26 922.78C333.045 922.78 335.715 921.674 337.685 919.705C339.654 917.736 340.76 915.065 340.76 912.28H340.88V888.28H340.78C343.483 878.277 348.899 869.217 356.43 862.1C366.99 869.28 381.49 875.6 401.43 879.38C427.56 884.33 444.43 874.87 451.57 864.38C457.57 855.51 457.85 844.6 452.29 835.91C448.19 829.44 434.67 815.17 397.64 821.19ZM401 777.27C422.75 773.73 432.51 778.96 434.84 782.6C435.93 784.3 435.79 786.18 434.43 788.2C430.92 793.41 420.55 797.39 405.28 794.55C394.56 792.71 384.077 789.692 374.02 785.55C380.91 782 389.73 779.1 401 777.27ZM401 712.92C422.74 709.39 432.49 714.63 434.83 718.28C435.93 720 435.78 721.91 434.4 723.95C430.89 729.15 420.53 733.1 405.32 730.21C392.73 727.82 382.95 724.35 375.32 720.41C383.5 716.76 392.14 714.24 401 712.92ZM401 648.52C422.74 644.99 432.49 650.23 434.83 653.88C435.93 655.6 435.78 657.51 434.4 659.55C430.89 664.74 420.53 668.69 405.32 665.81C394.841 663.975 384.647 660.774 375 656.29C383.246 652.457 392.003 649.84 401 648.52ZM434.4 852.7C430.89 857.9 420.53 861.84 405.32 858.96C392.8 856.58 383.06 853.14 375.49 849.23C383.608 845.556 392.191 843.012 401 841.67C422.74 838.13 432.49 843.38 434.83 847.03C435.91 848.75 435.76 850.66 434.38 852.7H434.4Z" fill="#5E5E5E"/>
<path d="M681.51 714.31C681.51 714.31 595.83 824.6 601.51 884.75C601.51 925.11 637.32 957.83 681.51 957.83C723.51 957.83 757.87 928.28 761.2 890.72C761.2 890.64 761.2 890.56 761.2 890.48C770.52 827.52 681.51 714.31 681.51 714.31ZM654.69 935.67C650.81 939.88 641.22 937.36 633.27 930.03C625.32 922.7 622 913.36 625.9 909.15C629.8 904.94 639.36 907.46 647.31 914.79C655.26 922.12 658.57 931.46 654.69 935.67Z" fill="#5E5E5E"/>
<path d="M646.11 744.46C640.669 719.819 627.666 697.493 608.92 680.6V263C608.92 217.45 571.29 180.52 524.92 180.52C478.55 180.52 440.92 217.45 440.92 263V618.1C453.69 623.1 460.36 630.97 463.37 635.68C471.77 648.83 471.37 665.24 462.46 678.49C459.753 682.436 456.435 685.927 452.63 688.83C456.87 691.89 460.51 695.703 463.37 700.08C471.77 713.24 471.37 729.64 462.46 742.89C459.765 746.818 456.464 750.295 452.68 753.19C456.901 756.227 460.525 760.017 463.37 764.37C471.76 777.47 471.44 793.84 462.53 807.08C459.797 811.081 456.437 814.617 452.58 817.55C456.842 820.612 460.5 824.436 463.37 828.83C471.77 841.98 471.37 858.39 462.46 871.64C461.9 872.46 461.3 873.28 460.66 874.09C480.25 885.707 502.621 891.797 525.396 891.712C548.171 891.628 570.497 885.372 590 873.61C592.56 833 622.94 779.7 646.11 744.46Z" fill="#A7A7A7"/>
<path d="M627.29 774.89C627.37 773.277 627.41 771.657 627.41 770.03C627.391 755.356 624.131 740.868 617.863 727.6C611.594 714.332 602.473 702.613 591.15 693.28V474.47C591.395 472.212 591.518 469.942 591.52 467.67C591.52 432.22 562.24 403.47 526.11 403.47C489.98 403.47 460.7 432.22 460.7 467.67C460.7 468.43 460.7 469.17 460.76 469.92V632.2C461.667 633.312 462.512 634.474 463.29 635.68C471.69 648.83 471.29 665.24 462.38 678.49C461.88 679.23 461.33 679.97 460.76 680.7V691.53C459.87 692.23 459 692.95 458.14 693.67C460.07 695.626 461.796 697.774 463.29 700.08C471.69 713.24 471.29 729.64 462.38 742.89C459.684 746.818 456.384 750.295 452.6 753.19C456.821 756.227 460.445 760.017 463.29 764.37C471.68 777.47 471.36 793.84 462.45 807.08C459.717 811.081 456.357 814.617 452.5 817.55C456.762 820.612 460.42 824.436 463.29 828.83C468.173 836.407 470.198 845.476 469 854.41C488.534 866.842 511.658 872.4 534.709 870.203C557.759 868.005 579.417 858.179 596.25 842.28C603.24 819.85 615 796.11 627.29 774.89Z" fill="#797979"/>
<path opacity="0.1" d="M646.11 744.46C640.668 719.819 627.666 697.493 608.92 680.6V263C608.92 217.45 571.29 180.52 524.92 180.52V891.72C547.863 891.764 570.377 885.499 590 873.61C592.56 833 622.94 779.7 646.11 744.46Z" fill="black" fill-opacity="0.87"/>
</svg>
